HIERARCHY
ROOT Hips
{
	OFFSET 0.000000 35.082581 0.000000
	CHANNELS 6 Xposition Yposition Zposition Xrotation Yrotation Zrotation 
	JOINT Spine
	{
		OFFSET 0.000000 6.876099 0.125700
		CHANNELS 3 Xrotation Yrotation Zrotation
		JOINT Spine1
		{
			OFFSET 0.000000 5.730043 0.104720
			CHANNELS 3 Xrotation Yrotation Zrotation
			JOINT Spine1_split
			{
				OFFSET 0.000000 5.730043 0.104720
				CHANNELS 3 Xrotation Yrotation Zrotation
				JOINT Spine2
				{
					OFFSET 0.000000 5.730043 0.104720
					CHANNELS 3 Xrotation Yrotation Zrotation
					JOINT Neck
					{
						OFFSET 0.000000 10.314075 0.188496
						CHANNELS 3 Xrotation Yrotation Zrotation
						JOINT Head
						{
							OFFSET 0.000000 7.643700 -2.377400
							CHANNELS 3 Xrotation Yrotation Zrotation
							JOINT HeadTop_End
							{
								OFFSET 0.000000 43.788605 -13.619600
								CHANNELS 3 Xrotation Yrotation Zrotation
								End Site
								{
									OFFSET 0.000000 0.000000 0.000000
								}
							}
						}
					}
					JOINT LeftShoulder
					{
						OFFSET 2.196100 4.412489 0.087492
						CHANNELS 3 Xrotation Yrotation Zrotation
						JOINT LeftShoulder_split
						{
							OFFSET 2.196100 4.412489 0.087492
							CHANNELS 3 Xrotation Yrotation Zrotation
							JOINT LeftArm
							{
								OFFSET 8.771219 -2.981674 -0.026999
								CHANNELS 3 Xrotation Yrotation Zrotation
								JOINT LeftForeArm
								{
									OFFSET 8.512804 0.000000 -0.000000
									CHANNELS 3 Xrotation Yrotation Zrotation
									JOINT LeftHand
									{
										OFFSET 18.484802 0.000000 -0.000000
										CHANNELS 3 Xrotation Yrotation Zrotation
										JOINT LeftHandThumb1
										{
											OFFSET 2.499420 -1.158070 2.653252
											CHANNELS 3 Xrotation Yrotation Zrotation
											JOINT LeftHandThumb2
											{
												OFFSET 2.370079 -1.368366 1.368366
												CHANNELS 3 Xrotation Yrotation Zrotation
												JOINT LeftHandThumb3
												{
													OFFSET 2.676727 -1.545410 1.545409
													CHANNELS 3 Xrotation Yrotation Zrotation
													JOINT LeftHandThumb4
													{
														OFFSET 1.692226 -0.977005 0.977007
														CHANNELS 3 Xrotation Yrotation Zrotation
														End Site
														{
															OFFSET 0.000000 0.000000 0.000000
														}
													}
												}
											}
										}
										JOINT LeftHandIndex1
										{
											OFFSET 7.924831 -0.457527 2.345128
											CHANNELS 3 Xrotation Yrotation Zrotation
											JOINT LeftHandIndex2
											{
												OFFSET 3.643303 0.000000 0.000000
												CHANNELS 3 Xrotation Yrotation Zrotation
												JOINT LeftHandIndex3
												{
													OFFSET 3.810799 0.000000 0.000000
													CHANNELS 3 Xrotation Yrotation Zrotation
													JOINT LeftHandIndex4
													{
														OFFSET 2.403702 0.000000 0.000000
														CHANNELS 3 Xrotation Yrotation Zrotation
														End Site
														{
															OFFSET 0.000000 0.000000 0.000000
														}
													}
												}
											}
										}
										JOINT LeftHandMiddle1
										{
											OFFSET 8.563995 0.000000 -0.000000
											CHANNELS 3 Xrotation Yrotation Zrotation
											JOINT LeftHandMiddle2
											{
												OFFSET 3.861618 0.000000 0.000000
												CHANNELS 3 Xrotation Yrotation Zrotation
												JOINT LeftHandMiddle3
												{
													OFFSET 3.701603 0.000000 0.000000
													CHANNELS 3 Xrotation Yrotation Zrotation
													JOINT LeftHandMiddle4
													{
														OFFSET 2.322544 0.000000 0.000000
														CHANNELS 3 Xrotation Yrotation Zrotation
														End Site
														{
															OFFSET 0.000000 0.000000 0.000000
														}
													}
												}
											}
										}
										JOINT LeftHandRing1
										{
											OFFSET 8.426460 -0.424637 -3.286992
											CHANNELS 3 Xrotation Yrotation Zrotation
											JOINT LeftHandRing2
											{
												OFFSET 3.126408 0.000000 0.000000
												CHANNELS 3 Xrotation Yrotation Zrotation
												JOINT LeftHandRing3
												{
													OFFSET 3.085026 0.000000 0.000000
													CHANNELS 3 Xrotation Yrotation Zrotation
													JOINT LeftHandRing4
													{
														OFFSET 1.644005 0.000000 0.000000
														CHANNELS 3 Xrotation Yrotation Zrotation
														End Site
														{
															OFFSET 0.000000 0.000000 0.000000
														}
													}
												}
											}
										}
									}
								}
							}
						}
					}
					JOINT RightShoulder
					{
						OFFSET -2.196100 4.412496 0.070690
						CHANNELS 3 Xrotation Yrotation Zrotation
						JOINT RightShoulder_split
						{
							OFFSET -2.196100 4.412496 0.070690
							CHANNELS 3 Xrotation Yrotation Zrotation
							JOINT RightArm
							{
								OFFSET -8.771282 -2.981682 -0.094208
								CHANNELS 3 Xrotation Yrotation Zrotation
								JOINT RightForeArm
								{
									OFFSET -8.494598 0.000000 0.000000
									CHANNELS 3 Xrotation Yrotation Zrotation
									JOINT RightHand
									{
										OFFSET -18.483803 0.000000 0.000001
										CHANNELS 3 Xrotation Yrotation Zrotation
										JOINT RightHandThumb1
										{
											OFFSET -2.527351 -1.008072 2.575253
											CHANNELS 3 Xrotation Yrotation Zrotation
											JOINT RightHandThumb2
											{
												OFFSET -2.321518 -1.340328 1.340329
												CHANNELS 3 Xrotation Yrotation Zrotation
												JOINT RightHandThumb3
												{
													OFFSET -2.657753 -1.534454 1.534455
													CHANNELS 3 Xrotation Yrotation Zrotation
													JOINT RightHandThumb4
													{
														OFFSET -1.807510 -1.043568 1.043567
														CHANNELS 3 Xrotation Yrotation Zrotation
														End Site
														{
															OFFSET 0.000000 0.000000 0.000000
														}
													}
												}
											}
										}
										JOINT RightHandIndex1
										{
											OFFSET -8.811420 0.015533 2.887987
											CHANNELS 3 Xrotation Yrotation Zrotation
											JOINT RightHandIndex2
											{
												OFFSET -3.537502 0.000000 0.000000
												CHANNELS 3 Xrotation Yrotation Zrotation
												JOINT RightHandIndex3
												{
													OFFSET -3.356201 0.000000 0.000000
													CHANNELS 3 Xrotation Yrotation Zrotation
													JOINT RightHandIndex4
													{
														OFFSET -1.933098 0.000000 0.000000
														CHANNELS 3 Xrotation Yrotation Zrotation
														End Site
														{
															OFFSET 0.000000 0.000000 0.000000
														}
													}
												}
											}
										}
										JOINT RightHandMiddle1
										{
											OFFSET -8.178135 0.000000 0.000000
											CHANNELS 3 Xrotation Yrotation Zrotation
											JOINT RightHandMiddle2
											{
												OFFSET -3.901302 0.000000 0.000000
												CHANNELS 3 Xrotation Yrotation Zrotation
												JOINT RightHandMiddle3
												{
													OFFSET -3.909599 0.000000 0.000000
													CHANNELS 3 Xrotation Yrotation Zrotation
													JOINT RightHandMiddle4
													{
														OFFSET -2.376003 0.000000 0.000000
														CHANNELS 3 Xrotation Yrotation Zrotation
														End Site
														{
															OFFSET 0.000000 0.000000 0.000000
														}
													}
												}
											}
										}
										JOINT RightHandRing1
										{
											OFFSET -7.559013 0.014137 -2.865403
											CHANNELS 3 Xrotation Yrotation Zrotation
											JOINT RightHandRing2
											{
												OFFSET -3.449306 0.000000 0.000000
												CHANNELS 3 Xrotation Yrotation Zrotation
												JOINT RightHandRing3
												{
													OFFSET -3.362106 0.000000 0.000000
													CHANNELS 3 Xrotation Yrotation Zrotation
													JOINT RightHandRing4
													{
														OFFSET -2.076401 0.000000 0.000000
														CHANNELS 3 Xrotation Yrotation Zrotation
														End Site
														{
															OFFSET 0.000000 0.000000 0.000000
														}
													}
												}
											}
										}
									}
								}
							}
						}
					}
				}
			}
		}
	}
	JOINT LeftUpLeg
	{
		OFFSET 10.205400 -3.823500 0.155100
		CHANNELS 3 Xrotation Yrotation Zrotation
		JOINT LeftLeg
		{
			OFFSET 0.708757 -12.982077 0.567790
			CHANNELS 3 Xrotation Yrotation Zrotation
			JOINT LeftFoot
			{
				OFFSET -0.708756 -10.717838 -2.184338
				CHANNELS 3 Xrotation Yrotation Zrotation
				JOINT LeftToeBase
				{
					OFFSET 0.108149 -7.191104 7.560241
					CHANNELS 3 Xrotation Yrotation Zrotation
					JOINT LeftToe_End
					{
						OFFSET 0.070230 0.081724 4.490308
						CHANNELS 3 Xrotation Yrotation Zrotation
						End Site
						{
							OFFSET 0.000000 0.000000 0.000000
						}
					}
				}
			}
		}
	}
	JOINT RightUpLeg
	{
		OFFSET -10.205400 -3.823500 0.005500
		CHANNELS 3 Xrotation Yrotation Zrotation
		JOINT RightLeg
		{
			OFFSET -0.708756 -12.982134 0.610632
			CHANNELS 3 Xrotation Yrotation Zrotation
			JOINT RightFoot
			{
				OFFSET 0.708754 -10.717769 -1.945823
				CHANNELS 3 Xrotation Yrotation Zrotation
				JOINT RightToeBase
				{
					OFFSET -0.108140 -7.191069 7.372968
					CHANNELS 3 Xrotation Yrotation Zrotation
					JOINT RightToe_End
					{
						OFFSET -0.070227 0.081735 4.479403
						CHANNELS 3 Xrotation Yrotation Zrotation
						End Site
						{
							OFFSET 0.000000 0.000000 0.000000
						}
					}
				}
			}
		}
	}
}
MOTION
Frames: 6
Frame Time: 0.016667
0.115659 32.103676 -1.693430 33.856701 -22.826004 8.578991 11.723408 3.134806 -3.452594 5.818544 0.259722 -2.809622 0.000000 0.000000 0.000000 -10.931784 0.793507 3.196297 0.763635 9.298920 -8.496115 -32.953136 4.763628 2.047906 -0.000000 -0.000000 0.000000 1.952266 -2.052964 14.106776 0.000000 0.000000 0.000000 -76.027355 17.447737 -39.907658 -79.531460 -83.559462 -82.552829 -40.469738 -0.152842 8.942053 17.551587 -5.699190 -12.932232 10.850558 26.127714 8.644746 20.927018 51.115824 0.218673 -0.000008 0.000001 -0.000002 13.980887 1.201570 -55.004381 0.370809 1.161733 -65.441893 1.983985 2.148012 -57.665102 -0.000000 0.000002 0.000000 7.504729 1.174532 -63.778524 1.807879 1.475669 -64.568012 0.130354 -0.912273 -43.272489 -0.000000 0.000002 0.000000 8.574304 2.179173 -75.148979 -0.207626 1.009277 -57.855070 0.443037 1.742150 -53.581311 0.000001 0.000002 0.000000 4.985281 19.106682 8.633889 0.000000 0.000000 0.000000 -22.095478 5.720156 42.521315 29.456717 69.546885 -32.206244 0.332157 10.304463 -5.342112 18.329294 0.310720 -9.071065 -2.198339 -31.113554 7.361220 -6.566779 -4.138088 2.407583 0.000004 -0.000000 -0.000006 2.375159 -3.668627 30.847006 -2.142092 -2.481824 41.032918 -1.899971 -4.827579 36.532927 0.000001 -0.000004 -0.000002 -1.972129 -5.717191 36.022025 0.289281 -5.113445 49.347946 -0.652809 -1.229473 38.485391 -0.000001 0.000001 -0.000000 -3.257768 -8.572684 37.723347 4.044303 -4.071801 59.216934 2.113897 -3.170810 41.547460 0.000001 -0.000001 -0.000000 -72.382028 8.051004 20.421670 106.804235 1.856893 -4.084559 -8.684183 -3.886181 -1.259841 -0.000094 -0.000044 -0.000011 0.000002 0.000000 -0.000000 -46.948757 5.163123 5.205179 42.569618 4.065719 0.400168 -16.960669 -1.859141 -0.361057 -11.136957 0.075501 -0.382188 0.000000 0.000001 0.000000 
-0.069016 32.287567 1.007040 31.942442 -21.461815 7.956555 13.602143 3.586215 -5.199882 4.946191 0.681146 -1.790055 0.000000 0.000000 0.000000 -10.657561 0.747529 3.502204 -0.964053 8.765073 -7.245215 -30.630035 4.634937 1.209476 -0.000000 0.000000 -0.000000 1.850590 -1.530463 12.872770 0.000000 0.000000 0.000000 -74.590242 15.606161 -37.843387 -144.943540 -87.295664 -147.420044 -48.350872 2.730435 12.545453 17.551580 -5.699193 -12.932234 10.850548 26.127712 8.644747 20.927027 51.115824 0.218679 -0.000004 -0.000001 -0.000002 13.980887 1.201567 -55.004381 0.370812 1.161734 -65.441887 1.983990 2.148011 -57.665108 -0.000000 -0.000001 0.000000 7.504729 1.174528 -63.778517 1.807881 1.475667 -64.568019 0.130351 -0.912274 -43.272489 -0.000000 0.000002 -0.000000 8.574305 2.179168 -75.148979 -0.207624 1.009277 -57.855070 0.443039 1.742152 -53.581311 0.000000 -0.000002 -0.000000 4.599379 20.091994 7.394499 0.000000 0.000000 0.000000 -22.228627 2.483222 40.725887 73.013807 78.448766 -77.195741 3.828291 11.723706 0.088474 16.754300 0.369578 -8.461172 -1.642450 -29.135763 6.903584 -5.717239 -4.655615 1.946955 -0.000001 0.000003 -0.000002 2.171738 -3.424933 28.919441 -2.060035 -2.222334 38.754268 -1.947554 -4.379984 33.777860 0.000000 -0.000002 -0.000000 -1.682250 -5.183769 33.477376 0.193944 -4.713285 48.099637 -0.660757 -1.093558 34.870161 -0.000001 -0.000003 0.000003 -2.821113 -8.304364 35.271186 3.590730 -3.876614 56.964922 1.849639 -2.988226 39.459123 0.000001 -0.000000 -0.000002 -81.344978 5.246112 20.909128 103.622671 2.779395 -3.537983 -3.210088 -4.225674 -2.062046 -0.011788 0.018031 0.054003 -0.000002 0.000000 -0.000000 -38.608939 4.996271 2.281859 43.224787 2.962599 0.129616 -18.913098 -5.122228 2.456797 -15.182648 1.364879 -0.012672 0.000000 -0.000000 -0.000000 
-0.236255 32.258644 3.779148 29.997112 -20.098335 7.404157 15.566100 4.193896 -7.205117 4.029744 1.227233 -0.599439 0.000000 0.000000 0.000000 -10.285328 0.762048 3.923219 -2.852082 7.836787 -6.163744 -28.170350 4.307467 0.283355 -0.000000 -0.000000 -0.000000 1.718151 -1.109381 11.529320 0.000000 0.000000 0.000000 -73.265479 13.679085 -35.280564 -210.646135 -84.574469 -212.480341 -56.352961 4.804349 15.957415 17.551580 -5.699194 -12.932234 10.850550 26.127714 8.644748 20.927011 51.115831 0.218682 -0.000002 0.000001 -0.000000 13.980885 1.201568 -55.004381 0.370817 1.161730 -65.441893 1.983990 2.148011 -57.665108 0.000000 -0.000003 -0.000000 7.504728 1.174529 -63.778524 1.807881 1.475667 -64.568019 0.130353 -0.912275 -43.272493 0.000000 -0.000003 -0.000001 8.574304 2.179173 -75.148986 -0.207624 1.009277 -57.855063 0.443037 1.742151 -53.581314 -0.000000 0.000001 -0.000000 4.280048 20.150723 5.717927 0.000000 0.000000 0.000000 -22.945331 2.376926 38.931464 122.509811 76.439782 -127.618287 5.357766 7.052869 3.426954 15.011007 0.421166 -7.763763 -1.045705 -26.961166 6.336304 -4.772929 -5.239106 1.455195 0.000001 -0.000002 -0.000000 1.966060 -3.143414 26.765503 -1.949421 -1.946039 36.208810 -1.956012 -3.890174 30.704231 -0.000001 -0.000003 -0.000001 -1.319218 -4.630096 30.634669 0.107749 -4.266998 46.698721 -0.653376 -0.947326 30.840903 -0.000000 0.000003 0.000001 -2.322595 -8.050476 32.533065 3.109239 -3.624318 54.449974 1.578673 -2.766539 37.126367 -0.000001 0.000000 0.000005 -88.840837 3.216556 20.588876 98.303313 4.169466 -3.076016 2.103509 -4.581828 -2.838342 -0.023427 0.036146 0.108008 0.000001 -0.000000 0.000000 -28.850955 4.573023 -0.649294 41.548379 2.441182 -0.074956 -19.367806 -9.098154 6.134350 -20.398427 2.650024 0.101812 0.000000 0.000002 -0.000000 
-0.413393 32.077156 6.588503 28.044367 -18.790650 6.968971 17.626929 4.950887 -9.403208 3.077285 1.862033 0.679605 0.000000 0.000000 0.000000 -9.831919 0.832859 4.395548 -4.861709 6.567924 -5.254669 -25.614994 3.813658 -0.693865 -0.000000 -0.000000 0.000000 1.645548 -1.000240 9.829729 0.000000 0.000000 0.000000 -71.214503 12.734339 -32.673596 -207.557045 -81.794780 -208.882840 -60.947636 5.792309 18.734765 17.551585 -5.699191 -12.932233 10.850542 26.127712 8.644750 20.927020 51.115831 0.218681 0.000001 0.000002 -0.000000 13.980884 1.201565 -55.004377 0.370814 1.161734 -65.441887 1.983990 2.148012 -57.665102 0.000001 0.000002 0.000001 7.504729 1.174530 -63.778524 1.807875 1.475670 -64.568019 0.130350 -0.912277 -43.272489 0.000000 0.000001 0.000001 8.574304 2.179170 -75.148979 -0.207622 1.009276 -57.855070 0.443038 1.742151 -53.581311 -0.000001 0.000000 0.000000 3.982609 19.709899 3.730232 0.000000 0.000000 0.000000 -24.454307 4.679002 37.090523 140.273425 71.780418 -145.773422 5.361416 -0.110379 4.820068 13.153475 0.459018 -6.994880 -0.426176 -24.662063 5.664088 -3.761623 -5.872806 0.952477 0.000001 0.000003 0.000003 1.770447 -2.830779 24.446787 -1.805904 -1.664667 33.469365 -1.914214 -3.378672 27.400444 -0.000001 -0.000000 0.000001 -0.886101 -4.086496 27.574577 0.038910 -3.788292 45.183901 -0.627286 -0.798105 26.514904 -0.000000 0.000001 -0.000001 -1.777049 -7.831447 29.587720 2.625432 -3.317453 51.745083 1.311610 -2.511135 34.616270 0.000002 0.000001 0.000001 -93.502080 2.362053 19.697152 90.661499 5.884231 -2.680555 6.550909 -4.900633 -3.510403 -0.035070 0.054248 0.162014 -0.000004 -0.000000 0.000000 -18.220674 3.874672 -3.285125 37.588662 1.789138 -0.230495 -17.587568 -12.527856 9.961024 -25.392213 3.827362 0.932867 0.000000 -0.000002 0.000000 
-0.638041 31.851372 9.353115 26.104713 -17.574630 6.683251 19.785538 5.822988 -11.717495 2.102503 2.546437 1.965312 0.000000 0.000000 0.000000 -9.313793 0.947435 4.855494 -6.915199 5.019030 -4.501209 -23.038276 3.199300 -1.694707 0.000001 -0.000000 0.000000 1.575022 -1.138140 7.901622 0.000000 0.000000 0.000000 -68.670251 12.567404 -29.970754 -216.018311 -77.688539 -216.721110 -67.747478 5.776999 20.897377 17.551587 -5.699189 -12.932235 10.850553 26.127714 8.644746 20.927023 51.115821 0.218681 -0.000000 -0.000000 -0.000004 13.980884 1.201565 -55.004381 0.370811 1.161735 -65.441893 1.983988 2.148010 -57.665108 0.000000 -0.000000 0.000000 7.504730 1.174529 -63.778524 1.807880 1.475672 -64.568019 0.130352 -0.912274 -43.272500 -0.000000 -0.000000 -0.000001 8.574305 2.179173 -75.148986 -0.207622 1.009276 -57.855070 0.443035 1.742150 -53.581314 0.000001 0.000001 -0.000000 3.699691 18.680750 1.234706 0.000000 0.000000 0.000000 -25.214251 8.862766 35.909320 144.796267 69.393103 -150.356738 3.702387 -7.939601 1.369698 11.235136 0.478051 -6.172865 0.201228 -22.308511 4.898741 -2.711005 -6.540171 0.456715 0.000003 0.000003 0.000003 1.595065 -2.495482 22.024777 -1.633967 -1.391500 30.608793 -1.816589 -2.866404 23.954426 0.000000 -0.000002 0.000000 -0.392222 -3.579631 24.378272 -0.006633 -3.291225 43.593679 -0.581460 -0.653368 22.009494 -0.000000 0.000001 -0.000000 -1.202107 -7.662703 26.514074 2.160706 -2.961075 48.922927 1.059925 -2.225847 31.995686 0.000000 -0.000001 0.000002 -94.763397 2.614345 18.551419 80.869351 7.689320 -2.310006 10.027869 -5.159640 -4.071163 -0.046669 0.072340 0.216012 -0.000001 -0.000001 0.000000 -7.882679 3.181524 -5.696590 31.941520 0.818458 -0.329914 -11.997208 -14.384416 14.480728 -31.681682 4.844313 2.040698 -0.000000 0.000001 -0.000000 
-0.947400 31.666302 12.053669 24.193549 -16.427153 6.481949 22.014895 6.748817 -13.962179 1.125548 3.238614 3.176634 0.000000 0.000000 0.000000 -8.745388 1.083686 5.241046 -8.981157 3.262096 -3.875457 -20.480129 2.514884 -2.689960 0.000001 0.000000 0.000000 1.502548 -1.658579 5.692864 0.000000 0.000000 0.000000 -65.196574 13.677518 -27.497964 -218.942424 -73.129107 -218.984006 -73.678781 4.577153 22.289764 17.551582 -5.699188 -12.932238 10.850550 26.127712 8.644742 20.927023 51.115818 0.218681 -0.000002 -0.000003 -0.000002 13.980883 1.201568 -55.004381 0.370816 1.161731 -65.441900 1.983990 2.148012 -57.665108 0.000000 0.000001 -0.000002 7.504728 1.174530 -63.778517 1.807878 1.475672 -64.568019 0.130347 -0.912278 -43.272489 0.000001 -0.000001 -0.000001 8.574304 2.179173 -75.148979 -0.207617 1.009277 -57.855070 0.443036 1.742149 -53.581311 -0.000001 0.000000 -0.000000 3.365111 17.561306 -1.142834 0.000000 0.000000 0.000000 -25.461910 13.320907 34.992145 138.077957 67.842247 -143.876255 -2.142837 -13.608386 -4.723545 9.308759 0.474949 -5.318870 0.823817 -19.968015 4.059051 -1.649013 -7.223276 -0.016699 -0.000002 0.000001 0.000003 1.447349 -2.147556 19.560671 -1.438191 -1.136925 27.699989 -1.663969 -2.373324 20.454222 -0.000001 0.000002 0.000001 0.147376 -3.130799 21.127527 -0.025571 -2.790307 41.966639 -0.514574 -0.519645 17.441916 0.000001 0.000000 -0.000000 -0.617353 -7.553389 23.391219 1.732912 -2.564915 46.055843 0.834307 -1.920273 29.331366 0.000000 0.000003 -0.000001 -92.810687 3.665785 17.321886 69.772384 9.240492 -1.882953 12.530505 -5.353139 -4.562538 -0.058302 0.090418 0.270057 0.000001 -0.000001 0.000000 0.249313 3.205731 -8.012453 26.739610 -0.766765 -0.404795 -1.324035 -12.483905 19.187651 -41.743244 5.632389 3.209121 -0.000000 -0.000000 -0.000000 
